<svg xmlns="http://www.w3.org/2000/svg" viewBox="0 0 518.94 32.51"><defs><style>.a,.c,.d{fill:none;stroke:#010101;stroke-miterlimit:10;}.b{fill:#231f20;}.c{stroke-width:4px;}.d{stroke-width:0.5px;}</style></defs><title>fake_timeline</title><line class="a" x1="41.85" y1="6.39" x2="481.75" y2="6.39"/><path class="b" d="M40.32,390.91l1.52-.24.15-1.51V384l-.15-1.54-1.67-.24v-.37l2.85-.31v7.65l.15,1.51,1.53.24v.4H40.32Z" transform="translate(-40.17 -381.18)"/><path class="b" d="M47.7,388c0-3.39,1.67-6.07,4.75-6.37l.07.52c-1.49.31-3.15,1.2-3.67,4.08a2.64,2.64,0,0,1,2-.9c1.31,0,2.23,1.2,2.23,2.91,0,1.89-1.19,3.43-2.87,3.43S47.7,390.29,47.7,388Zm4.44.67c0-1.44-.72-2.55-1.76-2.55a2.23,2.23,0,0,0-1.6.75,6.23,6.23,0,0,0-.07,1c0,1.9.67,3.15,1.8,3.15C51.47,391,52.15,390,52.15,388.63Z" transform="translate(-40.17 -381.18)"/><path class="b" d="M56.35,390.91l1.52-.24.15-1.51V384l-.15-1.54-1.67-.24v-.37l2.85-.31v7.65l.15,1.51,1.53.24v.4H56.35Z" transform="translate(-40.17 -381.18)"/><path class="b" d="M63.73,388c0-3.39,1.67-6.07,4.75-6.37l.07.52c-1.49.31-3.15,1.2-3.67,4.08a2.64,2.64,0,0,1,2-.9c1.31,0,2.23,1.2,2.23,2.91,0,1.89-1.19,3.43-2.87,3.43S63.73,390.29,63.73,388Zm4.44.67c0-1.44-.72-2.55-1.76-2.55a2.23,2.23,0,0,0-1.6.75,6.23,6.23,0,0,0-.07,1c0,1.9.67,3.15,1.8,3.15C67.5,391,68.17,390,68.17,388.63Z" transform="translate(-40.17 -381.18)"/><path class="b" d="M529.81,390.73c2.66-2.25,4-4.59,4-6.34,0-1.26-.66-2.15-1.71-2.15a2.54,2.54,0,0,0-2,1.1l-.34-.27a3.17,3.17,0,0,1,2.67-1.56,2.33,2.33,0,0,1,2.4,2.58c0,1.8-1.31,4.18-3.92,6.31h2.46l1-.24.22-1h.48l-.15,2.19h-5.12Z" transform="translate(-40.17 -381.18)"/><path class="b" d="M537.5,386.35c0-2.85,1-5.17,3-5.17,1.66,0,3,1.74,3,5.17,0,3.15-1.15,5.26-3,5.26S537.5,389.56,537.5,386.35Zm5,.1c0-2.74-.73-4.72-2.05-4.72s-1.91,2.1-1.91,4.65c0,2.74.73,4.71,2,4.71S542.46,389.65,542.46,386.46Z" transform="translate(-40.17 -381.18)"/><path class="b" d="M546.47,390.91l1.52-.24.15-1.51V384l-.15-1.54-1.67-.24v-.37l2.85-.31v7.65l.16,1.51,1.53.24v.4h-4.38Z" transform="translate(-40.17 -381.18)"/><path class="b" d="M554.65,391.12l3.72-8.44H556l-1.31.17-.29,1.17H554l.14-2.19h5v.42l-3.43,9.3Z" transform="translate(-40.17 -381.18)"/><line class="c" x1="41.85" y1="6.39" x2="250.25" y2="6.39"/><polygon class="b" points="235.19 18.43 237.33 23.07 242.12 23.81 238.66 27.42 239.47 32.51 235.19 30.11 230.9 32.51 231.72 27.42 228.25 23.81 233.04 23.07 235.19 18.43"/><line class="d" x1="235.19" y1="23" x2="235.19" y2="6.39"/></svg>